<svg width="32" height="32" fill="none" xmlns="http://www.w3.org/2000/svg"><path d="M31.363 14.768c-2.059-.74-3.325-2.834-3.165-4.488 0-.272-.163-.525-.37-.703a1.023 1.023 0 00-.792-.212c-3.137.46-6.009-1.834-6.294-5.06a.936.936 0 00-1.257-.797c-2.542.931-4.944-.753-5.903-2.946a.938.938 0 00-1.063-.54C5.302 1.634.001 8.605.001 16c0 8.788 7.212 16 16 16s16-7.212 16-16c-.026-.558-.03-1.014-.638-1.232zm-24.784 2.24a.938.938 0 110-1.875.938.938 0 010 1.875zm3.797 7.43a2.816 2.816 0 01-2.813-2.813 2.816 2.816 0 012.813-2.812 2.816 2.816 0 012.812 2.812 2.816 2.816 0 01-2.812 2.813zm.937-11.25a1.877 1.877 0 01-1.875-1.875c0-1.034.842-1.875 1.875-1.875 1.034 0 1.875.841 1.875 1.875a1.877 1.877 0 01-1.875 1.875zm7.5 13.125a1.877 1.877 0 01-1.875-1.875c0-1.034.842-1.875 1.875-1.875 1.034 0 1.875.841 1.875 1.875a1.877 1.877 0 01-1.875 1.875zm.938-7.5A2.816 2.816 0 0116.938 16a2.816 2.816 0 012.813-2.812A2.816 2.816 0 0122.563 16a2.816 2.816 0 01-2.812 2.813zm5.578 1.945a.938.938 0 110-1.875.938.938 0 010 1.875z" fill="#fff"/></svg>