<svg width="24" height="20" fill="none" xmlns="http://www.w3.org/2000/svg"><path d="M7.55 19.75c9.055 0 14.008-7.503 14.008-14.008 0-.211-.004-.427-.014-.638A9.999 9.999 0 0024 2.555c-.898.4-1.85.66-2.826.774A4.95 4.95 0 0023.339.606 9.897 9.897 0 0120.213 1.8a4.93 4.93 0 00-8.394 4.49A13.985 13.985 0 011.673 1.15a4.93 4.93 0 001.523 6.57 4.93 4.93 0 01-2.23-.614v.061a4.922 4.922 0 003.95 4.828 4.894 4.894 0 01-2.221.085A4.934 4.934 0 007.292 15.5 9.876 9.876 0 010 17.538a13.968 13.968 0 007.55 2.212z" fill="#fff"/></svg>